<svg viewBox="0 0 24 24" xmlns="http://www.w3.org/2000/svg"><path d="m21.95 9h-.27l-4.16 6.02-.82-.57 3.77-5.45h-2.34a1.25 1.25 0 1 0 -2.5 0h-.43l-1.25 4-.95-.3 1.15-3.7h-.9a1.25 1.25 0 0 0 -2.5 0h-.9l1.15 3.7-.95.3-1.25-4h-.42a1.25 1.25 0 0 0 -2.5 0h-2.37l3.77 5.45-.82.57-4.16-6.02h-.25a10.00015 10.00015 0 0 1 19.9 0z"/><path d="m11 15.405-1.414-1.405-3.618 3.595-1.414 1.405 5.032 5 1.414-1.405-3.618-3.595z"/><path d="m13.021 22.595 1.414 1.405 3.618-3.595 1.414-1.405-5.032-5-1.414 1.405 3.618 3.595z"/></svg>